{"glyphs":{"0":{"ha":833,"x_min":19,"x_max":825,"o":"m 825 393 q 808 49 825 228 q 796 -79 807 4 q 690 -212 778 -153 q 422 -272 603 -272 q 28 -56 53 -272 q 19 128 19 18 q 32 419 19 249 l 54 713 q 107 899 63 818 q 244 1031 157 992 q 376 1057 294 1053 q 514 1057 446 1057 l 526 1057 q 663 1028 601 1058 q 769 922 744 988 q 786 849 774 913 q 825 393 825 650 m 461 281 q 451 475 461 346 q 440 669 440 604 q 419 717 440 699 q 367 735 397 735 q 317 717 338 735 q 285 574 289 667 q 278 419 278 440 q 280 395 278 413 q 282 368 282 378 q 278 303 282 346 q 274 238 274 260 q 336 117 274 150 q 389 111 379 111 q 451 138 426 111 q 461 281 461 203 z "},"1":{"ha":489,"x_min":0,"x_max":467,"o":"m 467 978 q 446 535 446 821 q 439 -24 446 322 q 315 -40 393 -40 l 306 -40 l 164 -39 l 131 -7 l 181 742 l 169 750 q 93 704 110 704 q 24 765 51 704 q 0 863 0 815 q 3 886 0 875 q 157 982 82 953 q 333 1011 232 1011 q 467 978 415 1011 z "},"2":{"ha":867,"x_min":36,"x_max":875,"o":"m 875 632 q 788 388 875 461 q 640 301 756 361 q 492 217 535 247 q 371 96 415 164 l 842 89 q 849 -10 849 -8 q 831 -93 849 -62 q 594 -143 742 -143 q 475 -136 544 -143 l 111 -100 q 78 -7 78 -65 q 85 68 78 14 q 89 143 92 115 q 199 272 117 211 q 339 371 246 307 q 478 446 386 394 q 571 539 542 485 q 582 561 581 556 q 588 644 588 589 q 435 804 588 804 q 371 793 399 804 q 347 675 347 750 q 351 606 347 651 q 354 538 354 560 q 199 522 300 522 q 42 511 89 521 l 36 674 q 36 681 36 676 l 36 681 q 117 965 36 871 q 150 999 138 992 q 174 1007 153 1000 q 349 1032 249 1032 q 493 1024 407 1032 l 596 1014 q 636 1010 610 1013 q 857 831 838 963 q 875 632 875 704 z "},"3":{"ha":867,"x_min":63,"x_max":838,"o":"m 838 635 q 833 540 838 590 q 828 499 831 526 q 828 494 828 497 q 829 490 829 492 q 760 416 829 454 q 692 369 692 378 q 757 321 692 350 q 828 156 828 289 q 811 -1 828 99 q 772 -148 792 -108 q 724 -200 753 -187 q 667 -218 713 -204 q 376 -262 518 -262 q 260 -254 300 -262 q 175 -206 221 -246 q 113 -131 135 -169 q 72 111 72 -58 q 74 158 72 135 l 297 174 q 308 96 306 151 q 318 19 310 40 q 374 -31 332 -18 q 468 -44 415 -44 q 568 -26 526 -44 q 608 94 608 24 q 450 263 608 263 q 410 260 432 263 q 382 322 382 282 q 389 376 382 339 q 394 433 396 414 q 535 542 478 450 q 540 626 540 599 q 507 754 540 718 q 451 775 488 775 q 399 768 435 775 q 344 763 364 761 q 286 592 294 724 l 63 600 q 85 800 69 738 q 192 961 114 911 q 217 975 211 974 q 301 997 217 975 q 414 990 344 990 q 632 982 589 990 q 781 900 728 964 q 800 871 788 890 q 810 842 801 867 q 838 635 838 740 z "},"4":{"ha":844,"x_min":50,"x_max":828,"o":"m 828 943 l 689 -251 l 368 -251 l 353 -236 q 422 278 394 46 l 78 282 l 50 317 l 50 993 l 67 1008 q 181 994 124 1001 q 288 958 250 982 l 299 596 q 379 585 328 583 q 461 581 439 586 q 492 750 476 640 q 521 921 510 869 q 665 961 572 950 q 819 969 679 963 l 828 943 z "},"5":{"ha":800,"x_min":32,"x_max":811,"o":"m 811 119 q 717 -101 811 -19 q 506 -206 643 -167 q 269 -242 382 -242 q 129 -210 171 -242 q 40 -64 58 -154 q 32 106 32 -21 q 114 122 61 122 q 210 122 210 122 q 225 -6 219 11 q 324 -69 247 -69 q 438 -27 394 -69 q 481 86 481 15 q 453 175 481 146 q 272 225 417 213 q 90 272 140 236 l 53 343 q 49 572 50 406 l 47 918 l 79 944 l 756 944 l 771 926 q 758 813 764 869 q 724 706 747 742 l 361 694 q 344 550 344 628 q 346 517 344 533 l 393 474 l 654 396 q 708 367 675 389 q 806 192 794 310 q 811 119 811 133 z "},"6":{"ha":978,"x_min":39,"x_max":943,"o":"m 943 728 q 932 590 943 651 l 911 575 l 903 575 q 830 570 878 576 q 758 564 782 564 q 672 585 707 564 q 676 628 672 599 q 679 672 679 657 q 640 754 679 733 q 629 758 631 758 q 585 758 613 758 q 542 757 553 757 q 478 757 519 758 q 408 736 442 754 q 360 683 369 715 q 343 518 343 626 q 347 449 343 481 l 357 449 q 489 455 403 447 q 617 463 575 463 q 861 378 786 463 q 889 336 885 350 q 907 132 907 279 q 525 -279 907 -279 q 186 -217 356 -279 q 81 -132 121 -193 q 39 0 40 -71 q 39 68 39 17 q 89 872 39 486 q 294 1051 106 996 q 593 1090 424 1090 q 788 1071 724 1090 q 906 979 865 1047 q 922 947 913 968 q 943 728 943 882 m 665 107 q 625 222 665 178 q 607 239 619 228 q 594 254 603 244 q 508 288 561 288 q 375 228 419 288 q 358 164 358 206 q 375 54 358 160 q 415 -12 382 13 q 494 -37 443 -32 q 538 -42 538 -42 q 633 3 599 -42 q 665 107 665 43 z "},"7":{"ha":1067,"x_min":19,"x_max":1047,"o":"m 1047 813 l 560 -215 q 397 -267 494 -244 q 229 -301 313 -283 q 422 185 281 -108 q 650 650 499 340 q 406 599 546 635 q 164 531 285 564 q 72 688 114 604 q 19 856 19 796 q 24 882 19 871 q 201 925 85 899 l 975 1068 q 989 1071 990 1071 q 1029 1025 1025 1071 l 1047 813 z "},"8":{"ha":840,"x_min":1,"x_max":842,"o":"m 842 683 q 831 533 842 576 q 756 467 825 508 q 686 410 686 425 q 761 354 686 386 q 815 178 815 332 q 800 -44 815 92 q 728 -164 790 -137 q 686 -175 722 -167 q 358 -211 542 -211 q 111 -171 172 -211 q 1 163 1 -99 q 8 285 1 224 q 96 360 24 315 q 161 413 161 401 q 78 463 161 429 q 7 706 7 490 q 22 858 7 786 q 89 988 44 956 q 187 1021 104 999 q 351 1043 269 1043 q 486 1033 406 1043 q 619 1017 553 1025 q 674 1011 638 1015 q 753 971 717 1004 q 808 896 790 938 q 842 683 842 817 m 540 675 q 508 785 540 746 q 490 803 503 790 q 476 819 486 808 q 389 853 444 853 q 274 810 319 853 q 258 794 261 799 q 231 676 231 746 q 246 610 231 643 q 282 549 249 606 q 403 501 310 501 q 515 544 476 501 q 529 567 526 560 q 540 675 540 603 m 608 122 q 561 258 608 214 q 539 274 557 261 q 406 317 469 317 q 352 297 382 317 q 312 251 322 276 q 301 160 301 226 q 333 31 301 71 q 469 -40 390 -40 q 543 -18 486 -40 q 583 25 569 -7 q 608 122 608 82 z "},"9":{"ha":921,"x_min":14,"x_max":917,"o":"m 917 717 q 868 -64 917 365 q 624 -246 793 -201 q 308 -271 524 -271 q 186 -269 201 -271 q 76 -206 128 -264 q 18 -92 19 -142 l 14 194 q 46 233 14 217 l 57 233 q 128 238 81 232 q 199 244 176 244 q 285 222 250 244 q 281 179 285 208 q 278 135 278 150 q 328 49 278 58 q 400 49 329 49 q 501 53 478 49 q 586 101 558 63 q 599 125 596 117 q 614 289 614 181 q 610 357 614 325 l 600 357 q 468 351 554 358 q 340 343 382 343 q 93 432 168 343 q 68 469 72 457 q 58 607 58 499 q 93 890 58 738 q 104 936 96 907 q 135 976 110 949 q 385 1074 222 1074 q 581 1053 458 1074 l 714 1031 q 772 1022 735 1029 q 878 938 833 1004 q 888 923 888 925 q 915 806 889 921 q 917 717 917 803 m 597 654 q 549 817 597 722 q 425 844 494 844 q 347 833 385 844 q 300 697 300 783 q 311 617 300 642 q 329 589 314 610 q 457 519 382 519 q 565 561 517 519 q 582 578 579 574 q 597 654 597 600 z "}," ":{"ha":660,"x_min":0,"x_max":0,"o":""},"!":{"ha":353,"x_min":14,"x_max":342,"o":"m 342 1003 l 310 556 q 296 103 290 281 q 183 83 256 83 q 114 85 171 83 q 46 85 72 86 l 29 93 l 29 794 q 14 1007 29 854 q 56 1022 25 1024 q 99 1032 88 1021 q 129 1031 113 1031 q 179 1032 146 1031 q 229 1033 213 1033 q 342 1003 304 1033 m 286 -228 l 272 -236 l 39 -236 l 25 -222 l 21 -21 q 138 1 63 1 q 206 0 150 1 q 272 0 246 -1 l 286 -10 l 286 -228 z "},"\"":{"ha":636,"x_min":0,"x_max":632,"o":"m 632 933 q 565 779 614 863 q 479 633 538 729 q 438 613 465 613 q 400 622 415 613 q 356 643 379 636 q 311 661 339 647 q 375 840 329 736 q 449 1014 397 892 q 478 1038 458 1038 q 556 994 499 1038 q 632 933 594 964 m 321 919 q 254 765 303 849 q 168 619 226 715 q 126 599 154 599 q 89 608 104 599 q 44 629 68 622 q 0 647 28 633 q 64 826 18 722 q 138 1000 86 878 q 167 1024 147 1024 q 244 981 188 1024 q 321 919 283 950 z "},"#":{"ha":275,"x_min":14,"x_max":279,"o":"m 279 464 q 168 444 239 444 q 97 446 156 444 q 28 446 56 447 l 14 454 l 14 586 q 24 682 14 646 l 261 682 l 275 668 l 279 464 z "},"$":{"ha":754,"x_min":-1,"x_max":740,"o":"m 740 639 q 639 629 696 629 q 468 649 558 629 q 447 719 457 683 q 394 760 429 760 q 351 757 394 760 q 311 758 319 754 l 317 758 q 285 733 294 757 q 367 604 288 657 q 501 521 426 564 q 607 465 538 503 q 664 410 633 450 q 704 342 694 371 q 728 164 728 274 q 654 -21 728 39 q 461 -92 597 -67 l 451 -167 l 275 -171 q 265 -135 264 -164 q 250 -103 267 -107 q 229 -103 239 -103 q 128 -85 174 -103 q 49 -4 63 -57 q 24 125 40 28 q 11 256 11 196 q 17 328 11 293 l 17 328 l 17 328 l 18 328 l 24 328 l 46 328 l 156 329 q 279 314 236 329 l 279 119 q 326 85 293 85 q 374 95 343 85 q 422 106 406 106 q 472 201 472 128 q 468 254 472 238 q 361 351 456 307 q 229 417 303 378 q 99 531 175 461 q 0 689 8 613 q -1 739 -1 701 q 21 856 -1 808 q 101 946 46 911 q 139 953 113 953 q 185 949 154 953 q 231 944 215 944 q 289 999 288 944 q 289 1043 289 1021 q 303 1083 290 1074 l 303 1083 l 303 1083 l 308 1083 l 321 1083 l 399 1085 q 482 1069 451 1085 l 482 969 q 579 943 500 960 q 669 896 642 929 q 740 639 732 819 z "},"%":{"ha":275,"x_min":14,"x_max":279,"o":"m 279 464 q 168 444 239 444 q 97 446 156 444 q 28 446 56 447 l 14 454 l 14 586 q 24 682 14 646 l 261 682 l 275 668 l 279 464 z "},"&":{"ha":960,"x_min":11,"x_max":951,"o":"m 951 385 q 903 285 951 347 q 851 188 854 224 q 906 94 858 165 q 943 -3 943 39 q 867 -53 904 -28 q 785 -87 818 -81 l 732 -14 q 596 -94 683 -75 q 435 -112 517 -112 q 408 -110 446 -112 q 349 -108 383 -108 q 149 -90 203 -108 q 40 4 67 -62 q 11 204 11 76 q 15 274 11 228 q 19 342 19 321 q 82 413 19 376 q 144 457 144 449 q 85 499 144 475 q 38 703 38 578 q 50 865 38 768 q 114 975 60 944 q 340 1015 185 1015 q 494 1007 374 1015 q 629 999 539 1006 q 701 963 665 994 q 753 894 738 931 q 782 704 782 828 q 771 565 782 714 q 771 561 771 564 q 771 558 771 558 q 709 488 771 525 q 647 443 647 451 q 707 400 647 424 l 728 371 q 778 432 747 378 q 836 481 806 481 q 892 444 853 481 q 950 396 936 403 q 951 385 951 390 m 506 696 q 475 796 506 758 q 460 811 471 800 q 368 856 418 856 q 247 801 293 856 q 224 696 224 735 q 233 643 224 664 q 271 578 247 611 q 386 535 300 535 q 485 578 454 535 q 494 593 493 589 q 506 696 506 631 m 618 183 q 524 313 590 260 q 375 367 453 367 q 331 345 357 367 q 297 307 304 324 q 286 222 286 281 q 315 104 286 139 q 438 39 369 39 q 552 82 499 39 q 618 183 606 125 z "},"'":{"ha":319,"x_min":0,"x_max":321,"o":"m 321 919 q 254 765 303 849 q 168 619 226 715 q 126 599 154 599 q 89 608 104 599 q 44 629 68 622 q 0 647 28 633 q 64 826 18 722 q 138 1000 86 878 q 167 1024 147 1024 q 244 981 188 1024 q 321 919 283 950 z "},"(":{"ha":388,"x_min":0,"x_max":392,"o":"m 392 907 q 381 765 392 819 q 292 701 321 763 q 282 439 282 578 q 288 244 282 339 q 294 174 288 219 q 313 103 300 128 q 363 49 331 64 l 371 -153 q 275 -146 276 -146 q 179 -131 218 -142 q 40 -46 88 -106 q 25 -25 26 -29 q 0 79 21 -11 q 38 796 0 429 q 46 875 39 824 q 57 901 47 882 q 189 1015 97 979 q 392 1054 240 1036 l 392 907 z "},")":{"ha":571,"x_min":25,"x_max":549,"o":"m 549 221 q 518 -33 549 74 q 406 -203 485 -149 q 369 -224 382 -219 q 319 -232 351 -226 q 199 -258 260 -246 q 76 -274 128 -274 q 40 -272 58 -274 q 25 -190 25 -237 q 44 -65 25 -142 q 172 28 150 -36 q 179 64 174 31 q 200 336 196 174 q 206 608 203 472 q 210 663 207 621 q 213 715 213 697 q 204 743 213 719 q 128 843 182 814 q 90 854 110 853 q 49 860 76 854 q 46 893 46 876 q 59 995 46 928 q 72 1096 72 1063 l 83 1100 q 210 1089 172 1094 q 333 1058 282 1079 q 447 982 403 1032 q 467 960 464 965 q 479 922 471 954 q 528 597 517 794 l 542 343 q 549 221 549 214 z "},"*":{"ha":876,"x_min":7,"x_max":861,"o":"m 861 747 l 857 718 l 614 507 q 718 382 646 450 q 836 268 819 286 l 836 249 q 753 157 811 210 q 664 69 685 93 q 656 69 660 69 q 599 107 626 69 q 550 161 564 153 q 546 118 546 146 q 548 75 546 104 q 550 31 550 46 q 540 -29 550 -6 q 457 -43 503 -43 q 392 -39 435 -43 q 326 -35 349 -35 q 289 -37 306 -35 q 263 47 263 -4 q 269 117 263 74 q 279 185 278 167 q 235 146 264 182 q 186 110 206 110 q 162 119 172 110 q 134 147 151 129 q 69 207 117 164 q 7 303 13 260 l 239 507 q 136 628 210 560 q 21 738 94 663 q 93 842 39 788 q 190 926 93 842 q 247 882 214 919 q 299 828 285 838 l 303 1025 q 324 1042 303 1035 q 353 1050 339 1046 q 406 1044 369 1044 q 448 1047 419 1044 q 492 1049 476 1049 q 571 1029 543 1049 l 561 832 q 617 881 579 838 q 685 926 654 924 q 778 842 728 900 q 861 747 804 808 z "},"+":{"ha":275,"x_min":14,"x_max":279,"o":"m 279 464 q 168 444 239 444 q 97 446 156 444 q 28 446 56 447 l 14 454 l 14 586 q 24 682 14 646 l 261 682 l 275 668 l 279 464 z "},",":{"ha":319,"x_min":-1,"x_max":319,"o":"m 319 44 q 253 -110 301 -26 q 167 -256 225 -160 q 125 -276 153 -276 q 88 -267 103 -276 q 43 -247 67 -253 q -1 -228 26 -242 q 63 -49 17 -153 q 136 125 85 3 q 165 149 146 149 q 243 106 186 149 q 319 44 282 75 z "},"-":{"ha":458,"x_min":10,"x_max":443,"o":"m 443 501 q 435 436 443 481 q 429 368 428 392 l 394 349 l 49 360 q 18 410 18 374 q 21 439 18 419 q 24 468 24 458 q 10 511 24 494 q 83 546 28 543 q 326 551 179 551 q 438 540 392 551 q 443 501 443 524 z "},".":{"ha":275,"x_min":14,"x_max":279,"o":"m 279 -133 q 168 -153 239 -153 q 97 -151 156 -153 q 28 -151 56 -150 l 14 -143 l 14 -11 q 24 85 14 49 l 261 85 l 275 71 l 279 -133 z "},"/":{"ha":275,"x_min":14,"x_max":279,"o":"m 279 464 q 168 444 239 444 q 97 446 156 444 q 28 446 56 447 l 14 454 l 14 586 q 24 682 14 646 l 261 682 l 275 668 l 279 464 z "},":":{"ha":281,"x_min":4,"x_max":269,"o":"m 269 593 q 158 574 229 574 q 88 575 146 574 q 18 575 46 576 l 4 583 l 4 715 q 14 811 4 775 l 251 811 l 265 797 l 269 593 m 269 22 q 158 3 229 3 q 88 4 146 3 q 18 4 46 6 l 4 13 l 4 144 q 14 240 4 204 l 251 240 l 265 226 l 269 22 z "},";":{"ha":324,"x_min":-1,"x_max":319,"o":"m 313 250 q 201 231 272 231 q 131 232 189 231 q 61 232 89 233 l 47 240 l 47 372 q 57 468 47 432 l 294 468 l 308 454 l 313 250 m 319 44 q 253 -110 301 -26 q 167 -256 225 -160 q 125 -276 153 -276 q 88 -267 103 -276 q 43 -247 67 -253 q -1 -228 26 -242 q 63 -49 17 -153 q 136 125 85 3 q 165 149 146 149 q 243 106 186 149 q 319 44 282 75 z "},"<":{"ha":388,"x_min":0,"x_max":392,"o":"m 392 907 q 381 765 392 819 q 292 701 321 763 q 282 439 282 578 q 288 244 282 339 q 294 174 288 219 q 313 103 300 128 q 363 49 331 64 l 371 -153 q 275 -146 276 -146 q 179 -131 218 -142 q 40 -46 88 -106 q 25 -25 26 -29 q 0 79 21 -11 q 38 796 0 429 q 46 875 39 824 q 57 901 47 882 q 189 1015 97 979 q 392 1054 240 1036 l 392 907 z "},"=":{"ha":458,"x_min":7,"x_max":443,"o":"m 443 724 q 435 658 443 703 q 429 590 428 614 l 394 571 l 49 582 q 18 632 18 596 q 21 661 18 642 q 24 690 24 681 q 10 733 24 717 q 83 768 28 765 q 326 774 179 774 q 438 763 392 774 q 443 724 443 746 m 440 439 q 433 374 440 418 q 426 306 425 329 l 392 286 l 46 297 q 15 347 15 311 q 18 376 15 357 q 21 406 21 396 q 7 449 21 432 q 81 483 25 481 q 324 489 176 489 q 435 478 389 489 q 440 439 440 461 z "},">":{"ha":571,"x_min":25,"x_max":549,"o":"m 549 221 q 518 -33 549 74 q 406 -203 485 -149 q 369 -224 382 -219 q 319 -232 351 -226 q 199 -258 260 -246 q 76 -274 128 -274 q 40 -272 58 -274 q 25 -190 25 -237 q 44 -65 25 -142 q 172 28 150 -36 q 179 64 174 31 q 200 336 196 174 q 206 608 203 472 q 210 663 207 621 q 213 715 213 697 q 204 743 213 719 q 128 843 182 814 q 90 854 110 853 q 49 860 76 854 q 46 893 46 876 q 59 995 46 928 q 72 1096 72 1063 l 83 1100 q 210 1089 172 1094 q 333 1058 282 1079 q 447 982 403 1032 q 467 960 464 965 q 479 922 471 954 q 528 597 517 794 l 542 343 q 549 221 549 214 z "},"?":{"ha":785,"x_min":11,"x_max":779,"o":"m 779 714 q 739 506 779 583 q 696 454 738 504 l 596 335 q 475 154 508 231 q 374 122 439 128 q 265 119 351 119 l 228 119 q 213 163 213 139 q 253 258 213 194 q 475 544 375 451 q 513 717 513 685 q 476 815 513 779 q 378 851 440 851 q 319 842 346 851 q 297 715 297 800 q 300 660 297 696 q 303 608 303 625 q 161 592 250 593 q 17 585 50 589 l 11 738 l 11 739 l 11 738 l 11 736 q 115 1029 11 946 q 263 1069 165 1069 q 411 1057 318 1069 q 560 1039 521 1042 q 691 990 631 1035 q 764 876 751 946 q 779 714 779 792 m 475 -167 q 363 -187 436 -187 q 293 -187 339 -187 q 224 -186 244 -186 l 210 -178 l 210 -44 q 219 51 210 15 l 457 51 l 471 36 l 475 -167 z "},"@":{"ha":856,"x_min":14,"x_max":849,"o":"m 849 638 q 825 635 839 635 q 778 638 810 635 q 729 642 746 642 q 676 622 696 642 l 692 319 q 624 313 632 313 q 568 331 586 313 q 569 406 568 351 q 569 481 569 456 q 553 617 569 561 l 400 617 l 400 688 q 410 736 400 719 l 849 725 l 849 638 m 499 221 q 454 207 479 207 q 399 215 438 207 q 340 221 361 224 q 317 304 326 240 q 286 383 308 363 l 167 383 q 144 304 160 375 q 101 249 133 249 q 64 260 86 249 q 14 307 14 260 q 19 331 14 317 q 182 796 143 629 q 210 793 193 793 q 244 794 221 793 q 278 796 267 796 q 336 754 331 796 q 414 488 353 638 q 464 357 450 400 q 499 221 490 282 m 267 482 l 238 582 l 199 478 l 267 482 z "},"A":{"ha":1144,"x_min":0,"x_max":1135,"o":"m 1135 -135 q 1132 -208 1135 -160 q 1089 -265 1129 -256 q 761 -232 982 -251 q 722 -153 732 -206 l 706 -64 q 696 -26 703 -51 q 676 65 686 19 q 649 153 665 118 l 357 153 l 347 143 l 271 -139 q 232 -165 264 -165 q 200 -158 221 -165 q 171 -150 179 -151 q 74 -137 122 -144 q 0 -81 18 -125 q 76 181 8 63 q 90 203 82 188 q 97 231 93 213 q 136 333 110 274 q 181 435 181 433 q 250 638 203 492 q 357 1061 326 876 q 403 1111 369 1082 l 696 1104 q 761 999 742 1067 q 782 874 761 996 q 942 374 821 638 q 1135 -135 992 263 m 599 374 q 519 626 543 542 q 422 369 451 457 l 599 374 z "},"B":{"ha":733,"x_min":35,"x_max":707,"o":"m 706 782 q 675 596 707 629 q 621 561 668 589 q 575 521 585 540 q 665 429 647 488 q 681 274 681 379 q 661 85 681 188 q 654 51 660 72 q 644 36 653 47 q 547 -21 613 -6 q 431 -35 531 -25 q 392 -39 390 -39 l 60 -35 l 49 -24 q 60 306 60 125 q 35 1085 60 497 q 71 1107 39 1092 q 211 1100 131 1100 l 406 1101 q 404 1101 406 1101 q 593 1075 543 1097 q 626 1049 606 1069 q 706 799 704 971 l 706 782 m 429 767 q 417 854 429 826 q 379 906 406 878 q 326 940 349 936 q 292 944 315 942 l 279 946 q 240 931 253 946 l 240 642 q 299 617 250 617 q 333 617 329 617 q 381 637 357 618 q 417 679 406 656 q 429 767 429 703 m 489 267 q 478 350 489 319 q 363 419 453 419 q 347 419 356 419 q 332 332 332 382 q 335 265 332 310 q 339 197 339 219 q 338 163 339 179 q 383 147 356 147 q 463 167 414 147 q 489 267 489 210 z "},"C":{"ha":856,"x_min":7,"x_max":849,"o":"m 849 744 q 843 604 849 696 l 818 583 l 808 583 q 742 579 785 585 q 678 574 699 574 q 596 594 628 574 l 596 601 q 599 646 594 617 q 604 689 604 675 q 499 763 604 763 q 364 746 435 763 q 299 656 310 733 q 289 533 289 588 q 290 494 289 518 q 292 454 292 463 q 296 292 293 417 q 328 63 300 115 q 449 10 357 10 q 538 21 486 10 q 590 149 578 61 q 601 292 596 219 q 676 297 639 297 q 808 276 747 297 q 790 35 804 196 q 713 -140 778 -75 q 682 -167 693 -160 q 538 -193 639 -193 q 480 -192 518 -193 q 424 -190 442 -190 q 399 -190 415 -190 q 375 -192 383 -192 q 300 -181 375 -192 q 189 -165 260 -178 q 51 -85 100 -142 q 36 -65 38 -68 l 7 21 q 32 718 7 460 q 47 846 35 761 q 143 978 65 928 q 290 1028 194 1011 q 397 1046 329 1035 q 450 1054 449 1054 q 515 1054 474 1054 q 582 1053 563 1053 q 657 1053 607 1054 q 818 954 778 1046 q 849 744 849 886 z "},"D":{"ha":844,"x_min":33,"x_max":821,"o":"m 821 551 q 764 132 821 428 q 700 -19 747 44 q 567 -111 646 -90 q 269 -146 432 -146 q 53 -131 167 -146 l 33 -111 q 44 303 35 7 q 54 718 54 567 q 49 964 54 851 l 78 983 q 208 986 153 986 q 635 908 471 986 q 699 872 678 888 q 821 551 821 782 m 456 322 q 415 669 456 554 q 346 746 397 719 q 321 756 338 749 q 282 768 296 768 q 254 742 257 768 q 243 517 243 636 q 244 337 243 457 q 246 157 246 217 q 301 140 268 140 q 388 162 339 140 q 449 228 436 183 q 456 322 456 251 z "},"E":{"ha":690,"x_min":6,"x_max":686,"o":"m 686 1049 l 675 818 q 607 797 647 797 q 564 803 589 797 q 456 814 515 814 q 374 813 428 814 q 292 811 319 811 q 276 764 276 792 q 282 717 276 749 q 288 671 288 686 q 393 646 328 646 q 390 646 390 646 l 394 646 l 413 647 q 492 651 457 650 l 508 651 q 585 642 550 653 l 575 433 l 226 429 q 204 378 204 413 q 208 345 204 367 q 211 314 211 324 l 232 299 l 488 300 q 644 303 540 300 q 663 215 660 274 q 661 126 661 246 q 625 86 661 107 q 529 83 579 83 q 272 92 443 83 q 14 101 100 101 l 6 115 q 21 579 18 286 q 31 1044 25 917 l 46 1056 q 154 1053 97 1053 q 400 1061 233 1053 q 646 1069 561 1071 l 675 1069 l 686 1049 z "},"F":{"ha":767,"x_min":22,"x_max":731,"o":"m 731 897 q 728 851 731 882 q 725 806 725 821 q 726 790 725 800 q 728 774 728 779 q 699 744 728 744 q 607 751 711 744 q 400 758 486 758 q 264 753 324 758 q 238 697 238 736 q 241 665 238 686 q 244 633 244 643 l 269 613 l 633 613 l 647 597 q 642 549 642 574 q 647 484 642 526 q 653 419 653 442 q 651 392 653 406 q 606 369 635 369 q 571 374 594 369 q 535 378 547 378 q 514 375 528 378 q 493 372 500 372 q 446 376 478 372 q 397 381 414 381 q 335 360 361 381 q 315 193 315 285 q 317 147 315 178 q 319 101 319 117 q 324 57 319 86 q 328 13 328 28 q 294 -58 328 -37 l 61 -58 l 47 -43 q 49 81 49 17 q 22 950 49 433 l 43 972 l 688 986 q 731 897 731 960 z "},"G":{"ha":767,"x_min":0,"x_max":733,"o":"m 733 682 q 731 618 733 651 q 450 593 675 601 q 428 671 436 606 q 389 733 419 726 q 367 733 388 733 q 226 713 260 733 q 182 560 182 685 q 182 535 182 551 q 183 511 183 519 q 178 425 183 482 q 174 339 174 368 q 258 157 174 197 q 344 142 292 142 q 446 168 414 142 q 485 239 486 201 l 485 243 l 471 258 q 353 258 472 258 q 269 283 294 258 l 269 521 l 283 536 q 667 511 417 525 l 681 496 q 688 382 682 478 q 693 268 693 313 q 626 49 693 117 q 350 -51 529 -51 q 101 24 201 -51 q 15 160 38 71 q 0 324 0 218 q 0 372 0 340 q 0 421 0 404 q 17 794 0 704 q 68 915 28 860 q 161 989 113 978 q 290 1010 178 993 q 447 1026 408 1026 q 606 999 539 1026 q 626 989 625 990 q 681 935 653 964 q 693 908 683 932 q 733 682 733 817 z "},"H":{"ha":767,"x_min":26,"x_max":728,"o":"m 728 -53 q 714 -69 728 -60 q 693 -78 700 -78 q 461 -60 519 -78 q 465 54 465 -7 q 451 319 465 144 q 382 339 424 339 q 330 335 364 339 q 278 331 296 331 q 249 333 263 331 q 233 260 233 304 q 236 213 233 247 q 253 -37 242 149 l 243 -49 q 193 -50 217 -50 q 26 -28 81 -50 q 44 392 44 165 q 32 813 44 575 q 119 831 67 831 q 210 819 163 831 q 219 701 219 793 q 228 618 219 644 q 372 607 308 607 q 444 611 411 607 q 461 733 461 632 q 461 772 461 774 q 449 856 451 826 q 440 939 447 885 l 461 956 q 586 950 532 950 q 697 960 657 950 l 718 931 q 708 558 708 753 q 724 15 708 326 q 728 -53 728 -56 z "},"I":{"ha":378,"x_min":28,"x_max":342,"o":"m 342 978 q 321 569 321 818 l 319 235 q 317 44 321 171 l 301 36 l 58 31 q 28 92 28 50 q 33 148 28 110 q 39 207 39 186 q 44 307 39 221 q 69 810 69 738 q 64 974 69 897 q 115 999 71 985 q 157 996 128 996 q 204 997 172 996 q 253 999 236 999 q 342 978 310 999 z "},"J":{"ha":722,"x_min":11,"x_max":704,"o":"m 704 649 q 667 135 704 439 l 661 92 q 651 71 661 89 q 565 -10 622 18 q 428 -44 517 -35 q 328 -56 385 -50 q 282 -60 283 -60 q 85 -21 125 -60 q 11 236 11 50 q 15 364 11 260 q 13 364 13 364 l 14 364 l 18 365 l 40 365 q 143 365 60 365 q 261 343 222 365 l 261 335 q 259 278 263 315 q 256 224 256 240 q 286 126 256 158 q 324 121 304 121 q 426 181 400 121 q 443 306 443 218 q 438 412 443 342 q 433 515 433 482 q 424 924 432 642 q 490 944 443 946 q 564 949 550 943 q 582 947 572 947 q 608 949 590 947 q 633 950 625 950 q 686 924 678 950 q 690 890 686 922 q 704 649 704 779 z "},"K":{"ha":767,"x_min":35,"x_max":743,"o":"m 743 915 q 539 350 743 914 q 636 67 571 249 q 736 -215 708 -129 q 706 -243 736 -239 q 654 -250 663 -250 l 582 -250 q 518 -233 539 -250 q 413 38 485 -143 q 367 -96 392 1 q 313 -225 343 -183 l 81 -225 l 56 -200 q 65 263 65 47 q 35 967 65 643 l 46 976 l 322 971 l 342 944 q 337 731 342 874 q 332 518 332 589 q 333 456 332 483 q 518 926 376 547 q 601 967 533 967 q 648 963 617 967 q 694 960 679 960 q 726 941 710 951 q 743 915 743 931 z "},"L":{"ha":711,"x_min":14,"x_max":692,"o":"m 692 81 l 676 64 l 651 64 q 32 106 515 63 l 21 121 q 32 582 32 388 q 14 1039 32 836 l 40 1058 l 292 1058 q 322 1019 322 1058 q 317 993 322 1004 q 296 679 299 703 q 267 367 283 501 q 272 340 272 357 q 270 319 272 333 q 268 299 268 306 q 283 261 268 274 q 386 257 329 257 q 508 260 426 257 q 629 263 589 263 q 692 261 665 263 l 692 81 z "},"M":{"ha":1367,"x_min":-6,"x_max":1317,"o":"m 1317 -254 l 1308 -267 l 1268 -267 q 1025 -250 1138 -268 q 1008 -181 1008 -224 q 1001 -68 1008 -142 q 986 151 994 42 q 957 368 978 282 q 894 153 921 278 q 856 -68 886 113 q 843 -142 853 -97 q 749 -187 829 -179 q 633 -193 692 -190 q 586 -199 589 -199 q 508 -149 521 -199 q 481 -32 500 -110 q 339 356 433 140 q 329 200 329 285 q 338 -4 329 132 q 346 -208 346 -140 q 318 -278 346 -269 q 265 -275 293 -275 q 174 -279 235 -275 q 83 -283 114 -283 q 7 -278 42 -283 q -4 -185 -6 -237 l -4 -168 q -1 -85 -4 -139 l 0 -64 q 0 -57 -1 -61 q 0 -58 1 -58 q -1 28 -1 -18 q 15 540 -1 185 q 28 1051 31 871 l 44 1068 l 306 1068 q 351 989 333 1042 q 379 899 360 958 q 422 786 394 861 q 514 533 457 693 q 663 175 596 301 q 697 256 668 185 q 735 344 711 285 q 754 411 736 350 q 904 1024 844 719 q 954 1035 924 1035 q 1015 1027 985 1035 q 1094 1015 1046 1019 q 1167 983 1149 1011 q 1317 -254 1201 367 z "},"N":{"ha":878,"x_min":13,"x_max":864,"o":"m 864 1026 q 857 969 864 1018 q 840 751 849 914 q 828 276 828 539 q 833 -251 828 250 l 806 -275 l 550 -267 l 529 -246 q 279 444 467 -19 q 279 410 279 428 q 293 158 279 304 q 319 -121 304 64 q 182 -151 271 -151 q 106 -148 157 -151 q 32 -144 56 -144 l 13 -126 q 36 621 36 233 q 32 958 36 789 q 106 983 56 983 q 133 982 115 983 q 160 981 150 981 q 223 990 181 981 q 286 999 265 999 q 319 993 304 999 q 372 865 350 947 q 410 732 407 740 q 461 586 435 660 q 522 444 492 503 q 529 619 529 522 q 524 831 529 690 q 518 1043 518 972 q 540 1068 518 1058 q 563 1074 547 1069 q 574 1078 574 1078 l 853 1078 q 864 1026 864 1058 z "},"O":{"ha":756,"x_min":-3,"x_max":756,"o":"m 756 233 q 708 -15 756 71 q 688 -47 694 -40 q 650 -71 681 -54 q 363 -136 533 -136 q 120 -78 192 -136 q 18 93 49 -19 q -3 299 -3 169 q -1 383 -3 326 q 0 468 0 440 q -1 557 0 497 q -3 646 -3 617 q 36 911 -3 813 q 50 939 46 933 q 75 960 54 944 q 276 1018 154 1018 q 494 988 379 1018 q 688 893 631 951 q 733 744 729 851 q 740 582 736 690 q 749 407 742 538 q 756 233 756 299 m 496 388 q 488 632 496 526 q 485 671 488 646 q 475 690 483 676 q 365 744 440 744 q 325 700 335 719 q 332 383 332 386 q 330 322 332 363 q 328 260 328 281 q 371 124 328 165 q 389 110 382 113 q 426 104 403 104 q 490 133 469 104 q 496 388 496 272 z "},"P":{"ha":833,"x_min":13,"x_max":826,"o":"m 826 618 q 719 382 826 443 q 539 317 678 358 q 356 253 476 299 l 340 229 q 346 53 343 140 q 368 -122 351 -53 l 368 -128 q 371 -155 367 -137 q 375 -181 375 -172 q 364 -207 375 -196 q 279 -212 326 -212 q 163 -208 251 -212 q 44 -207 89 -204 l 29 -190 l 31 401 q 13 964 31 735 q 100 982 35 982 q 165 988 149 982 q 414 982 400 982 q 653 928 565 971 q 799 786 749 881 q 815 750 806 774 q 826 618 826 707 m 476 678 q 469 735 476 717 q 431 785 461 754 q 381 817 400 815 q 325 822 361 819 l 313 824 l 310 824 q 311 824 310 824 q 250 806 271 824 l 250 564 l 267 544 q 300 543 283 543 q 449 585 382 543 q 476 678 476 621 z "},"Q":{"ha":1089,"x_min":-4,"x_max":1090,"o":"m 1090 -29 q 1072 -312 1083 -122 l 1056 -329 q 863 -340 939 -340 q 489 -236 619 -340 q 319 -221 444 -226 q 150 -197 206 -217 q 36 -111 76 -172 q 26 -92 26 -93 q -3 56 25 -90 q -4 165 -4 63 q 7 500 -4 267 q 25 843 13 614 q 108 960 31 919 q 271 1008 126 969 q 551 1057 449 1057 q 783 971 701 1057 q 817 928 807 946 q 836 875 824 915 q 869 625 869 768 q 856 375 869 554 q 846 131 846 250 q 844 117 846 126 q 842 103 842 107 q 829 -39 842 -14 q 889 -51 857 -51 q 971 -36 921 -51 q 1058 -10 1056 -10 q 1090 -29 1076 -10 m 506 282 q 485 513 506 383 q 468 604 481 543 q 374 657 453 657 q 315 644 343 657 q 290 371 290 542 q 292 265 290 336 q 293 157 293 193 q 292 103 293 125 q 339 67 306 78 q 400 56 346 65 q 400 63 400 60 q 386 116 400 82 q 372 168 372 150 q 421 242 372 204 q 506 282 465 276 z "},"R":{"ha":889,"x_min":10,"x_max":878,"o":"m 878 -193 q 875 -208 878 -201 q 739 -240 819 -240 q 604 -225 685 -240 q 546 -50 564 -171 q 506 131 525 88 q 361 239 465 218 l 342 221 l 342 176 q 361 -185 340 7 l 350 -204 l 31 -212 l 15 -197 q 32 260 31 6 q 32 210 32 243 l 31 721 q 20 836 31 760 q 10 951 10 913 l 31 975 l 93 975 q 604 931 406 978 q 672 911 628 925 q 793 797 746 883 q 838 633 838 718 q 710 410 838 485 q 672 396 696 406 q 649 368 647 386 l 649 363 q 751 219 725 318 q 758 160 751 218 l 774 39 q 833 -122 789 -81 q 878 -193 878 -164 m 468 617 q 446 708 468 683 q 394 765 429 728 q 347 784 381 768 q 292 800 313 800 q 264 793 276 800 l 257 515 l 276 499 q 404 517 375 506 q 468 617 468 540 z "},"S":{"ha":933,"x_min":18,"x_max":940,"o":"m 940 61 q 879 -153 940 -81 q 840 -186 868 -165 q 565 -264 735 -264 q 217 -210 425 -264 q 51 -56 86 -175 q 18 169 22 46 q 124 176 65 176 q 363 154 226 176 q 378 88 372 140 q 410 29 383 46 q 497 6 449 6 q 585 40 550 6 q 515 189 581 126 q 375 279 475 226 q 275 336 311 313 q 233 368 260 349 q 179 396 215 376 q 71 522 106 443 q 58 554 60 546 q 54 607 58 556 q 46 740 46 706 q 165 1025 46 953 q 375 1081 233 1067 q 615 1099 554 1099 q 868 996 800 1099 q 925 650 925 910 q 919 554 925 599 q 753 556 836 554 q 589 578 656 558 l 593 674 q 596 719 593 689 q 579 838 596 797 q 524 874 564 874 q 438 844 479 874 q 358 771 379 833 q 353 714 353 754 q 399 589 353 625 q 476 544 401 588 q 678 426 621 463 q 861 285 786 357 q 890 256 872 275 q 940 61 940 189 z "},"T":{"ha":1211,"x_min":7,"x_max":1196,"o":"m 1196 838 l 1172 817 l 764 833 l 743 810 q 750 397 743 790 q 771 -11 754 156 q 699 -21 739 -21 q 633 -17 676 -21 q 567 -12 589 -12 q 528 -15 544 -12 q 485 -10 521 -10 q 449 8 457 -10 q 451 126 451 64 q 440 438 451 224 q 432 749 431 639 l 403 772 l 19 772 l 7 789 q 13 936 13 829 q 24 1083 13 1029 q 88 1094 51 1094 q 153 1088 111 1094 q 217 1076 201 1078 q 267 1076 215 1076 l 389 1078 q 667 1076 481 1078 q 944 1074 853 1074 q 1167 1076 1079 1074 l 1196 1060 l 1196 838 z "},"U":{"ha":844,"x_min":4,"x_max":836,"o":"m 836 358 q 818 -6 836 157 q 764 -89 783 -74 q 681 -131 732 -104 q 503 -168 607 -168 q 378 -162 460 -168 q 342 -156 365 -160 q 244 -137 318 -151 q 71 -74 122 -115 q 4 96 4 -19 q 10 188 4 126 q 15 279 15 249 q 15 299 15 285 q 14 318 14 311 q 22 422 14 315 l 38 642 q 94 951 51 835 q 188 981 129 981 q 244 974 219 981 q 285 940 285 963 q 276 600 285 811 q 264 261 265 336 l 264 254 q 279 199 263 225 q 325 165 296 172 q 389 160 349 160 q 467 200 456 160 q 471 317 471 215 q 466 488 471 374 q 461 658 461 601 q 490 944 461 822 q 649 978 564 978 q 806 940 739 978 q 817 860 817 910 q 822 738 817 821 q 836 358 836 547 z "},"V":{"ha":1289,"x_min":0,"x_max":1279,"o":"m 1279 929 q 1192 663 1265 778 q 1178 642 1186 656 q 1161 592 1172 624 q 1099 456 1143 544 q 1036 322 1054 368 q 967 47 1011 257 q 892 -190 935 -106 q 879 -214 881 -212 q 826 -265 878 -215 l 499 -260 q 436 -151 451 -231 q 401 -29 417 -53 q 226 460 371 136 q 101 735 164 597 q 0 1019 32 896 q 13 1074 3 1038 q 44 1111 22 1111 q 235 1096 114 1111 q 425 1076 372 1079 q 468 1000 456 1050 q 486 913 476 956 q 578 560 518 785 q 689 217 629 365 q 761 356 726 263 q 804 469 775 393 q 821 504 811 481 q 874 663 831 528 q 968 974 914 792 q 1035 1003 993 1003 q 1101 990 1060 1003 q 1167 974 1149 976 q 1231 965 1199 969 q 1279 929 1267 956 z "},"W":{"ha":1256,"x_min":18,"x_max":1243,"o":"m 1243 1015 q 1229 956 1243 996 q 1215 890 1215 915 q 1199 793 1215 896 q 1090 -157 1144 446 q 892 -194 1000 -194 q 856 -193 874 -194 q 693 431 776 149 l 693 433 q 682 450 693 439 q 650 306 667 401 q 619 160 638 233 q 606 44 615 144 q 581 -201 594 -47 q 501 -240 558 -233 q 408 -253 469 -243 q 314 -272 331 -272 q 257 -237 267 -272 q 249 -183 254 -219 l 228 -29 q 175 328 189 233 q 108 682 143 528 q 86 776 93 749 q 54 867 72 829 q 18 996 18 944 q 25 1044 18 1021 q 346 1101 99 1067 l 375 1038 q 414 754 376 1035 q 467 478 436 586 q 551 1008 535 739 q 660 1049 582 1049 q 738 1044 668 1049 q 788 971 774 1021 q 799 876 796 940 q 811 783 803 813 q 847 614 819 754 q 896 450 868 511 q 931 735 925 553 q 949 1021 936 946 l 969 1044 l 1232 1054 q 1243 1015 1243 1036 z "},"X":{"ha":990,"x_min":25,"x_max":990,"o":"m 990 -60 q 863 -122 942 -89 q 731 -178 749 -169 l 707 -174 l 481 190 q 389 21 435 106 q 315 -157 339 -78 q 267 -169 293 -169 q 183 -151 239 -169 q 96 -133 126 -132 q 83 -89 83 -114 q 97 -28 83 -62 q 218 235 144 88 q 315 438 253 301 q 25 931 25 883 q 72 983 25 963 q 222 1033 186 1033 q 267 1028 247 1033 q 357 897 286 1022 q 453 733 439 750 q 589 1000 497 822 q 849 926 699 976 l 849 886 q 622 478 692 626 q 804 213 692 369 q 990 -49 897 82 l 990 -60 z "},"Y":{"ha":967,"x_min":1,"x_max":971,"o":"m 971 956 q 944 883 971 932 q 917 828 935 865 q 912 813 915 822 q 847 694 908 803 q 694 433 785 586 q 678 -225 674 135 l 661 -242 l 326 -253 l 310 -237 q 339 322 339 129 q 338 426 339 375 q 10 953 269 550 q 1 972 1 965 q 54 1010 1 990 l 288 1094 q 364 1006 331 1072 q 418 892 382 968 q 472 785 436 856 q 524 682 489 750 q 711 997 646 861 q 729 1038 717 1011 q 781 1060 742 1060 q 896 1032 832 1060 q 971 956 971 1000 z "},"Z":{"ha":1267,"x_min":14,"x_max":1265,"o":"m 1265 957 l 1232 739 q 919 440 1135 642 q 608 140 714 247 q 1096 164 769 144 q 1067 -104 1096 107 l 1050 -119 q 697 -140 997 -122 l 26 -183 l 14 -172 l 31 43 l 722 678 l 144 694 q 142 744 142 717 q 153 883 142 788 q 161 1022 163 974 q 236 1046 189 1046 q 275 1044 249 1046 q 314 1042 301 1042 q 348 1042 325 1042 q 382 1042 371 1042 q 499 1038 444 1042 l 1249 972 l 1265 957 z "},"[":{"ha":388,"x_min":0,"x_max":392,"o":"m 392 907 q 381 765 392 819 q 292 701 321 763 q 282 439 282 578 q 288 244 282 339 q 294 174 288 219 q 313 103 300 128 q 363 49 331 64 l 371 -153 q 275 -146 276 -146 q 179 -131 218 -142 q 40 -46 88 -106 q 25 -25 26 -29 q 0 79 21 -11 q 38 796 0 429 q 46 875 39 824 q 57 901 47 882 q 189 1015 97 979 q 392 1054 240 1036 l 392 907 z "},"\\":{"ha":275,"x_min":14,"x_max":279,"o":"m 279 464 q 168 444 239 444 q 97 446 156 444 q 28 446 56 447 l 14 454 l 14 586 q 24 682 14 646 l 261 682 l 275 668 l 279 464 z "},"]":{"ha":571,"x_min":25,"x_max":549,"o":"m 549 221 q 518 -33 549 74 q 406 -203 485 -149 q 369 -224 382 -219 q 319 -232 351 -226 q 199 -258 260 -246 q 76 -274 128 -274 q 40 -272 58 -274 q 25 -190 25 -237 q 44 -65 25 -142 q 172 28 150 -36 q 179 64 174 31 q 200 336 196 174 q 206 608 203 472 q 210 663 207 621 q 213 715 213 697 q 204 743 213 719 q 128 843 182 814 q 90 854 110 853 q 49 860 76 854 q 46 893 46 876 q 59 995 46 928 q 72 1096 72 1063 l 83 1100 q 210 1089 172 1094 q 333 1058 282 1079 q 447 982 403 1032 q 467 960 464 965 q 479 922 471 954 q 528 597 517 794 l 542 343 q 549 221 549 214 z "},"^":{"ha":275,"x_min":14,"x_max":279,"o":"m 279 464 q 168 444 239 444 q 97 446 156 444 q 28 446 56 447 l 14 454 l 14 586 q 24 682 14 646 l 261 682 l 275 668 l 279 464 z "},"_":{"ha":275,"x_min":14,"x_max":279,"o":"m 279 464 q 168 444 239 444 q 97 446 156 444 q 28 446 56 447 l 14 454 l 14 586 q 24 682 14 646 l 261 682 l 275 668 l 279 464 z "},"`":{"ha":275,"x_min":14,"x_max":279,"o":"m 279 464 q 168 444 239 444 q 97 446 156 444 q 28 446 56 447 l 14 454 l 14 586 q 24 682 14 646 l 261 682 l 275 668 l 279 464 z "},"a":{"ha":1144,"x_min":0,"x_max":1135,"o":"m 1135 -135 q 1132 -208 1135 -160 q 1089 -265 1129 -256 q 761 -232 982 -251 q 722 -153 732 -206 l 706 -64 q 696 -26 703 -51 q 676 65 686 19 q 649 153 665 118 l 357 153 l 347 143 l 271 -139 q 232 -165 264 -165 q 200 -158 221 -165 q 171 -150 179 -151 q 74 -137 122 -144 q 0 -81 18 -125 q 76 181 8 63 q 90 203 82 188 q 97 231 93 213 q 136 333 110 274 q 181 435 181 433 q 250 638 203 492 q 357 1061 326 876 q 403 1111 369 1082 l 696 1104 q 761 999 742 1067 q 782 874 761 996 q 942 374 821 638 q 1135 -135 992 263 m 599 374 q 519 626 543 542 q 422 369 451 457 l 599 374 z "},"b":{"ha":733,"x_min":35,"x_max":707,"o":"m 706 782 q 675 596 707 629 q 621 561 668 589 q 575 521 585 540 q 665 429 647 488 q 681 274 681 379 q 661 85 681 188 q 654 51 660 72 q 644 36 653 47 q 547 -21 613 -6 q 431 -35 531 -25 q 392 -39 390 -39 l 60 -35 l 49 -24 q 60 306 60 125 q 35 1085 60 497 q 71 1107 39 1092 q 211 1100 131 1100 l 406 1101 q 404 1101 406 1101 q 593 1075 543 1097 q 626 1049 606 1069 q 706 799 704 971 l 706 782 m 429 767 q 417 854 429 826 q 379 906 406 878 q 326 940 349 936 q 292 944 315 942 l 279 946 q 240 931 253 946 l 240 642 q 299 617 250 617 q 333 617 329 617 q 381 637 357 618 q 417 679 406 656 q 429 767 429 703 m 489 267 q 478 350 489 319 q 363 419 453 419 q 347 419 356 419 q 332 332 332 382 q 335 265 332 310 q 339 197 339 219 q 338 163 339 179 q 383 147 356 147 q 463 167 414 147 q 489 267 489 210 z "},"c":{"ha":856,"x_min":7,"x_max":849,"o":"m 849 744 q 843 604 849 696 l 818 583 l 808 583 q 742 579 785 585 q 678 574 699 574 q 596 594 628 574 l 596 601 q 599 646 594 617 q 604 689 604 675 q 499 763 604 763 q 364 746 435 763 q 299 656 310 733 q 289 533 289 588 q 290 494 289 518 q 292 454 292 463 q 296 292 293 417 q 328 63 300 115 q 449 10 357 10 q 538 21 486 10 q 590 149 578 61 q 601 292 596 219 q 676 297 639 297 q 808 276 747 297 q 790 35 804 196 q 713 -140 778 -75 q 682 -167 693 -160 q 538 -193 639 -193 q 480 -192 518 -193 q 424 -190 442 -190 q 399 -190 415 -190 q 375 -192 383 -192 q 300 -181 375 -192 q 189 -165 260 -178 q 51 -85 100 -142 q 36 -65 38 -68 l 7 21 q 32 718 7 460 q 47 846 35 761 q 143 978 65 928 q 290 1028 194 1011 q 397 1046 329 1035 q 450 1054 449 1054 q 515 1054 474 1054 q 582 1053 563 1053 q 657 1053 607 1054 q 818 954 778 1046 q 849 744 849 886 z "},"d":{"ha":844,"x_min":33,"x_max":821,"o":"m 821 551 q 764 132 821 428 q 700 -19 747 44 q 567 -111 646 -90 q 269 -146 432 -146 q 53 -131 167 -146 l 33 -111 q 44 303 35 7 q 54 718 54 567 q 49 964 54 851 l 78 983 q 208 986 153 986 q 635 908 471 986 q 699 872 678 888 q 821 551 821 782 m 456 322 q 415 669 456 554 q 346 746 397 719 q 321 756 338 749 q 282 768 296 768 q 254 742 257 768 q 243 517 243 636 q 244 337 243 457 q 246 157 246 217 q 301 140 268 140 q 388 162 339 140 q 449 228 436 183 q 456 322 456 251 z "},"e":{"ha":690,"x_min":6,"x_max":686,"o":"m 686 1049 l 675 818 q 607 797 647 797 q 564 803 589 797 q 456 814 515 814 q 374 813 428 814 q 292 811 319 811 q 276 764 276 792 q 282 717 276 749 q 288 671 288 686 q 393 646 328 646 q 390 646 390 646 l 394 646 l 413 647 q 492 651 457 650 l 508 651 q 585 642 550 653 l 575 433 l 226 429 q 204 378 204 413 q 208 345 204 367 q 211 314 211 324 l 232 299 l 488 300 q 644 303 540 300 q 663 215 660 274 q 661 126 661 246 q 625 86 661 107 q 529 83 579 83 q 272 92 443 83 q 14 101 100 101 l 6 115 q 21 579 18 286 q 31 1044 25 917 l 46 1056 q 154 1053 97 1053 q 400 1061 233 1053 q 646 1069 561 1071 l 675 1069 l 686 1049 z "},"f":{"ha":767,"x_min":22,"x_max":731,"o":"m 731 897 q 728 851 731 882 q 725 806 725 821 q 726 790 725 800 q 728 774 728 779 q 699 744 728 744 q 607 751 711 744 q 400 758 486 758 q 264 753 324 758 q 238 697 238 736 q 241 665 238 686 q 244 633 244 643 l 269 613 l 633 613 l 647 597 q 642 549 642 574 q 647 484 642 526 q 653 419 653 442 q 651 392 653 406 q 606 369 635 369 q 571 374 594 369 q 535 378 547 378 q 514 375 528 378 q 493 372 500 372 q 446 376 478 372 q 397 381 414 381 q 335 360 361 381 q 315 193 315 285 q 317 147 315 178 q 319 101 319 117 q 324 57 319 86 q 328 13 328 28 q 294 -58 328 -37 l 61 -58 l 47 -43 q 49 81 49 17 q 22 950 49 433 l 43 972 l 688 986 q 731 897 731 960 z "},"g":{"ha":767,"x_min":0,"x_max":733,"o":"m 733 682 q 731 618 733 651 q 450 593 675 601 q 428 671 436 606 q 389 733 419 726 q 367 733 388 733 q 226 713 260 733 q 182 560 182 685 q 182 535 182 551 q 183 511 183 519 q 178 425 183 482 q 174 339 174 368 q 258 157 174 197 q 344 142 292 142 q 446 168 414 142 q 485 239 486 201 l 485 243 l 471 258 q 353 258 472 258 q 269 283 294 258 l 269 521 l 283 536 q 667 511 417 525 l 681 496 q 688 382 682 478 q 693 268 693 313 q 626 49 693 117 q 350 -51 529 -51 q 101 24 201 -51 q 15 160 38 71 q 0 324 0 218 q 0 372 0 340 q 0 421 0 404 q 17 794 0 704 q 68 915 28 860 q 161 989 113 978 q 290 1010 178 993 q 447 1026 408 1026 q 606 999 539 1026 q 626 989 625 990 q 681 935 653 964 q 693 908 683 932 q 733 682 733 817 z "},"h":{"ha":767,"x_min":26,"x_max":728,"o":"m 728 -53 q 714 -69 728 -60 q 693 -78 700 -78 q 461 -60 519 -78 q 465 54 465 -7 q 451 319 465 144 q 382 339 424 339 q 330 335 364 339 q 278 331 296 331 q 249 333 263 331 q 233 260 233 304 q 236 213 233 247 q 253 -37 242 149 l 243 -49 q 193 -50 217 -50 q 26 -28 81 -50 q 44 392 44 165 q 32 813 44 575 q 119 831 67 831 q 210 819 163 831 q 219 701 219 793 q 228 618 219 644 q 372 607 308 607 q 444 611 411 607 q 461 733 461 632 q 461 772 461 774 q 449 856 451 826 q 440 939 447 885 l 461 956 q 586 950 532 950 q 697 960 657 950 l 718 931 q 708 558 708 753 q 724 15 708 326 q 728 -53 728 -56 z "},"i":{"ha":378,"x_min":28,"x_max":342,"o":"m 342 978 q 321 569 321 818 l 319 235 q 317 44 321 171 l 301 36 l 58 31 q 28 92 28 50 q 33 148 28 110 q 39 207 39 186 q 44 307 39 221 q 69 810 69 738 q 64 974 69 897 q 115 999 71 985 q 157 996 128 996 q 204 997 172 996 q 253 999 236 999 q 342 978 310 999 z "},"j":{"ha":722,"x_min":11,"x_max":704,"o":"m 704 649 q 667 135 704 439 l 661 92 q 651 71 661 89 q 565 -10 622 18 q 428 -44 517 -35 q 328 -56 385 -50 q 282 -60 283 -60 q 85 -21 125 -60 q 11 236 11 50 q 15 364 11 260 q 13 364 13 364 l 14 364 l 18 365 l 40 365 q 143 365 60 365 q 261 343 222 365 l 261 335 q 259 278 263 315 q 256 224 256 240 q 286 126 256 158 q 324 121 304 121 q 426 181 400 121 q 443 306 443 218 q 438 412 443 342 q 433 515 433 482 q 424 924 432 642 q 490 944 443 946 q 564 949 550 943 q 582 947 572 947 q 608 949 590 947 q 633 950 625 950 q 686 924 678 950 q 690 890 686 922 q 704 649 704 779 z "},"k":{"ha":767,"x_min":35,"x_max":743,"o":"m 743 915 q 539 350 743 914 q 636 67 571 249 q 736 -215 708 -129 q 706 -243 736 -239 q 654 -250 663 -250 l 582 -250 q 518 -233 539 -250 q 413 38 485 -143 q 367 -96 392 1 q 313 -225 343 -183 l 81 -225 l 56 -200 q 65 263 65 47 q 35 967 65 643 l 46 976 l 322 971 l 342 944 q 337 731 342 874 q 332 518 332 589 q 333 456 332 483 q 518 926 376 547 q 601 967 533 967 q 648 963 617 967 q 694 960 679 960 q 726 941 710 951 q 743 915 743 931 z "},"l":{"ha":711,"x_min":14,"x_max":692,"o":"m 692 81 l 676 64 l 651 64 q 32 106 515 63 l 21 121 q 32 582 32 388 q 14 1039 32 836 l 40 1058 l 292 1058 q 322 1019 322 1058 q 317 993 322 1004 q 296 679 299 703 q 267 367 283 501 q 272 340 272 357 q 270 319 272 333 q 268 299 268 306 q 283 261 268 274 q 386 257 329 257 q 508 260 426 257 q 629 263 589 263 q 692 261 665 263 l 692 81 z "},"m":{"ha":1367,"x_min":-6,"x_max":1317,"o":"m 1317 -254 l 1308 -267 l 1268 -267 q 1025 -250 1138 -268 q 1008 -181 1008 -224 q 1001 -68 1008 -142 q 986 151 994 42 q 957 368 978 282 q 894 153 921 278 q 856 -68 886 113 q 843 -142 853 -97 q 749 -187 829 -179 q 633 -193 692 -190 q 586 -199 589 -199 q 508 -149 521 -199 q 481 -32 500 -110 q 339 356 433 140 q 329 200 329 285 q 338 -4 329 132 q 346 -208 346 -140 q 318 -278 346 -269 q 265 -275 293 -275 q 174 -279 235 -275 q 83 -283 114 -283 q 7 -278 42 -283 q -4 -185 -6 -237 l -4 -168 q -1 -85 -4 -139 l 0 -64 q 0 -57 -1 -61 q 0 -58 1 -58 q -1 28 -1 -18 q 15 540 -1 185 q 28 1051 31 871 l 44 1068 l 306 1068 q 351 989 333 1042 q 379 899 360 958 q 422 786 394 861 q 514 533 457 693 q 663 175 596 301 q 697 256 668 185 q 735 344 711 285 q 754 411 736 350 q 904 1024 844 719 q 954 1035 924 1035 q 1015 1027 985 1035 q 1094 1015 1046 1019 q 1167 983 1149 1011 q 1317 -254 1201 367 z "},"n":{"ha":878,"x_min":13,"x_max":864,"o":"m 864 1026 q 857 969 864 1018 q 840 751 849 914 q 828 276 828 539 q 833 -251 828 250 l 806 -275 l 550 -267 l 529 -246 q 279 444 467 -19 q 279 410 279 428 q 293 158 279 304 q 319 -121 304 64 q 182 -151 271 -151 q 106 -148 157 -151 q 32 -144 56 -144 l 13 -126 q 36 621 36 233 q 32 958 36 789 q 106 983 56 983 q 133 982 115 983 q 160 981 150 981 q 223 990 181 981 q 286 999 265 999 q 319 993 304 999 q 372 865 350 947 q 410 732 407 740 q 461 586 435 660 q 522 444 492 503 q 529 619 529 522 q 524 831 529 690 q 518 1043 518 972 q 540 1068 518 1058 q 563 1074 547 1069 q 574 1078 574 1078 l 853 1078 q 864 1026 864 1058 z "},"o":{"ha":756,"x_min":-3,"x_max":756,"o":"m 756 233 q 708 -15 756 71 q 688 -47 694 -40 q 650 -71 681 -54 q 363 -136 533 -136 q 120 -78 192 -136 q 18 93 49 -19 q -3 299 -3 169 q -1 383 -3 326 q 0 468 0 440 q -1 557 0 497 q -3 646 -3 617 q 36 911 -3 813 q 50 939 46 933 q 75 960 54 944 q 276 1018 154 1018 q 494 988 379 1018 q 688 893 631 951 q 733 744 729 851 q 740 582 736 690 q 749 407 742 538 q 756 233 756 299 m 496 388 q 488 632 496 526 q 485 671 488 646 q 475 690 483 676 q 365 744 440 744 q 325 700 335 719 q 332 378 332 383 q 330 318 332 358 q 328 258 328 278 q 371 124 328 165 q 389 110 382 113 q 426 104 403 104 q 490 133 469 104 q 496 388 496 272 z "},"p":{"ha":833,"x_min":13,"x_max":826,"o":"m 826 618 q 719 382 826 443 q 539 317 678 358 q 356 253 476 299 l 340 229 q 346 53 343 140 q 368 -122 351 -53 l 368 -128 q 371 -155 367 -137 q 375 -181 375 -172 q 364 -207 375 -196 q 279 -212 326 -212 q 163 -208 251 -212 q 44 -207 89 -204 l 29 -190 l 31 401 q 13 964 31 735 q 100 982 35 982 q 165 988 149 982 q 414 982 400 982 q 653 928 565 971 q 799 786 749 881 q 815 750 806 774 q 826 618 826 707 m 476 678 q 469 735 476 717 q 431 785 461 754 q 381 817 400 815 q 325 822 361 819 l 313 824 l 310 824 q 311 824 310 824 q 250 806 271 824 l 250 564 l 267 544 q 300 543 283 543 q 449 585 382 543 q 476 678 476 621 z "},"q":{"ha":1089,"x_min":-4,"x_max":1090,"o":"m 1090 -29 q 1072 -312 1083 -122 l 1056 -329 q 863 -340 939 -340 q 489 -236 619 -340 q 319 -221 444 -226 q 150 -197 206 -217 q 36 -111 76 -172 q 26 -92 26 -93 q -3 56 25 -90 q -4 165 -4 63 q 7 500 -4 267 q 25 843 13 614 q 108 960 31 919 q 271 1008 126 969 q 551 1057 449 1057 q 783 971 701 1057 q 817 928 807 946 q 836 875 824 915 q 869 625 869 768 q 856 375 869 554 q 846 131 846 250 q 844 117 846 126 q 842 103 842 107 q 829 -39 842 -14 q 889 -51 857 -51 q 971 -36 921 -51 q 1058 -10 1056 -10 q 1090 -29 1076 -10 m 506 282 q 485 513 506 383 q 468 604 481 543 q 374 657 453 657 q 315 644 343 657 q 290 371 290 542 q 292 265 290 336 q 293 157 293 193 q 292 103 293 125 q 339 67 306 78 q 400 56 346 65 q 400 63 400 60 q 386 116 400 82 q 372 168 372 150 q 421 242 372 204 q 506 282 465 276 z "},"r":{"ha":889,"x_min":10,"x_max":878,"o":"m 878 -193 q 875 -208 878 -201 q 739 -240 819 -240 q 604 -225 685 -240 q 546 -50 564 -171 q 506 131 525 88 q 361 239 465 218 l 342 221 l 342 176 q 361 -185 340 7 l 350 -204 l 31 -212 l 15 -197 q 32 260 31 6 q 32 210 32 243 l 31 721 q 20 836 31 760 q 10 951 10 913 l 31 975 l 93 975 q 604 931 406 978 q 672 911 628 925 q 793 797 746 883 q 838 633 838 718 q 710 410 838 485 q 672 396 696 406 q 649 368 647 386 l 649 363 q 751 219 725 318 q 758 160 751 218 l 774 39 q 833 -122 789 -81 q 878 -193 878 -164 m 468 617 q 446 708 468 683 q 394 765 429 728 q 347 784 381 768 q 292 800 313 800 q 264 793 276 800 l 257 515 l 276 499 q 404 517 375 506 q 468 617 468 540 z "},"s":{"ha":933,"x_min":18,"x_max":940,"o":"m 940 61 q 879 -153 940 -81 q 840 -186 868 -165 q 565 -264 735 -264 q 217 -210 425 -264 q 51 -56 86 -175 q 18 169 22 46 q 124 176 65 176 q 363 154 226 176 q 378 88 372 140 q 410 29 383 46 q 497 6 449 6 q 585 40 550 6 q 515 189 581 126 q 375 279 475 226 q 275 336 311 313 q 233 368 260 349 q 179 396 215 376 q 71 522 106 443 q 58 554 60 546 q 54 607 58 556 q 46 740 46 706 q 165 1025 46 953 q 375 1081 233 1067 q 615 1099 554 1099 q 868 996 800 1099 q 925 650 925 910 q 919 554 925 599 q 753 556 836 554 q 589 578 656 558 l 593 674 q 596 719 593 689 q 579 838 596 797 q 524 874 564 874 q 438 844 479 874 q 358 771 379 833 q 353 714 353 754 q 399 589 353 625 q 476 544 401 588 q 678 426 621 463 q 861 285 786 357 q 890 256 872 275 q 940 61 940 189 z "},"t":{"ha":1211,"x_min":7,"x_max":1196,"o":"m 1196 838 l 1172 817 l 764 833 l 743 810 q 750 397 743 790 q 771 -11 754 156 q 699 -21 739 -21 q 633 -17 676 -21 q 567 -12 589 -12 q 528 -15 544 -12 q 485 -10 521 -10 q 449 8 457 -10 q 451 126 451 64 q 440 438 451 224 q 432 749 431 639 l 403 772 l 19 772 l 7 789 q 13 936 13 829 q 24 1083 13 1029 q 88 1094 51 1094 q 153 1088 111 1094 q 217 1076 201 1078 q 267 1076 215 1076 l 389 1078 q 667 1076 481 1078 q 944 1074 853 1074 q 1167 1076 1079 1074 l 1196 1060 l 1196 838 z "},"u":{"ha":844,"x_min":4,"x_max":836,"o":"m 836 358 q 818 -6 836 157 q 764 -89 783 -74 q 681 -131 732 -104 q 503 -168 607 -168 q 378 -162 460 -168 q 342 -156 365 -160 q 244 -137 318 -151 q 71 -74 122 -115 q 4 96 4 -19 q 10 188 4 126 q 15 279 15 249 q 15 299 15 285 q 14 318 14 311 q 22 422 14 315 l 38 642 q 94 951 51 835 q 188 981 129 981 q 244 974 219 981 q 285 940 285 963 q 276 600 285 811 q 264 261 265 336 l 264 254 q 279 199 263 225 q 325 165 296 172 q 389 160 349 160 q 467 200 456 160 q 471 317 471 215 q 466 488 471 374 q 461 658 461 601 q 490 944 461 822 q 649 978 564 978 q 806 940 739 978 q 817 860 817 910 q 822 738 817 821 q 836 358 836 547 z "},"v":{"ha":1289,"x_min":0,"x_max":1279,"o":"m 1279 929 q 1192 663 1265 778 q 1178 642 1186 656 q 1161 592 1172 624 q 1099 456 1143 544 q 1036 322 1054 368 q 967 47 1011 257 q 892 -190 935 -106 q 879 -214 881 -212 q 826 -265 878 -215 l 499 -260 q 436 -151 451 -231 q 401 -29 417 -53 q 226 460 371 136 q 101 735 164 597 q 0 1019 32 896 q 13 1074 3 1038 q 44 1111 22 1111 q 235 1096 114 1111 q 425 1076 372 1079 q 468 1000 456 1050 q 486 913 476 956 q 578 560 518 785 q 689 217 629 365 q 761 356 726 263 q 804 469 775 393 q 821 504 811 481 q 874 663 831 528 q 968 974 914 792 q 1035 1003 993 1003 q 1101 990 1060 1003 q 1167 974 1149 976 q 1231 965 1199 969 q 1279 929 1267 956 z "},"w":{"ha":1256,"x_min":18,"x_max":1243,"o":"m 1243 1015 q 1229 956 1243 996 q 1215 890 1215 915 q 1199 793 1215 896 q 1090 -157 1144 446 q 892 -194 1000 -194 q 856 -193 874 -194 q 693 431 776 149 l 693 433 q 682 450 693 439 q 650 306 667 401 q 619 160 638 233 q 606 44 615 144 q 581 -201 594 -47 q 501 -240 558 -233 q 408 -253 469 -243 q 314 -272 331 -272 q 257 -237 267 -272 q 249 -183 254 -219 l 228 -29 q 175 328 189 233 q 108 682 143 528 q 86 776 93 749 q 54 867 72 829 q 18 996 18 944 q 25 1044 18 1021 q 346 1101 99 1067 l 375 1038 q 414 754 376 1035 q 467 478 436 586 q 551 1008 535 739 q 660 1049 582 1049 q 738 1044 668 1049 q 788 971 774 1021 q 799 876 796 940 q 811 783 803 813 q 847 614 819 754 q 896 450 868 511 q 931 735 925 553 q 949 1021 936 946 l 969 1044 l 1232 1054 q 1243 1015 1243 1036 z "},"x":{"ha":990,"x_min":25,"x_max":990,"o":"m 990 -60 q 863 -122 942 -89 q 731 -178 749 -169 l 707 -174 l 481 190 q 389 21 435 106 q 315 -157 339 -78 q 267 -169 293 -169 q 183 -151 239 -169 q 96 -133 126 -132 q 83 -89 83 -114 q 97 -28 83 -62 q 218 235 144 88 q 315 438 253 301 q 25 931 25 883 q 72 983 25 963 q 222 1033 186 1033 q 267 1028 247 1033 q 357 897 286 1022 q 453 733 439 750 q 589 1000 497 822 q 849 926 699 976 l 849 886 q 622 478 692 626 q 804 213 692 369 q 990 -49 897 82 l 990 -60 z "},"y":{"ha":967,"x_min":1,"x_max":971,"o":"m 971 956 q 944 883 971 932 q 917 828 935 865 q 912 813 915 822 q 847 694 908 803 q 694 433 785 586 q 678 -225 674 135 l 661 -242 l 326 -253 l 310 -237 q 339 322 339 129 q 338 426 339 375 q 10 953 269 550 q 1 972 1 965 q 54 1010 1 990 l 288 1094 q 364 1006 331 1072 q 418 892 382 968 q 472 785 436 856 q 524 682 489 750 q 711 997 646 861 q 729 1038 717 1011 q 781 1060 742 1060 q 896 1032 832 1060 q 971 956 971 1000 z "},"z":{"ha":1267,"x_min":14,"x_max":1265,"o":"m 1265 957 l 1232 739 q 919 440 1135 642 q 608 140 714 247 q 1096 164 769 144 q 1067 -104 1096 107 l 1050 -119 q 697 -140 997 -122 l 26 -183 l 14 -172 l 31 43 l 722 678 l 144 694 q 142 744 142 717 q 153 883 142 788 q 161 1022 163 974 q 236 1046 189 1046 q 275 1044 249 1046 q 314 1042 301 1042 q 348 1042 325 1042 q 382 1042 371 1042 q 499 1038 444 1042 l 1249 972 l 1265 957 z "},"{":{"ha":388,"x_min":0,"x_max":392,"o":"m 392 907 q 381 765 392 819 q 292 701 321 763 q 282 439 282 578 q 288 244 282 339 q 294 174 288 219 q 313 103 300 128 q 363 49 331 64 l 371 -153 q 275 -146 276 -146 q 179 -131 218 -142 q 40 -46 88 -106 q 25 -25 26 -29 q 0 79 21 -11 q 38 796 0 429 q 46 875 39 824 q 57 901 47 882 q 189 1015 97 979 q 392 1054 240 1036 l 392 907 z "},"|":{"ha":275,"x_min":14,"x_max":279,"o":"m 279 464 q 168 444 239 444 q 97 446 156 444 q 28 446 56 447 l 14 454 l 14 586 q 24 682 14 646 l 261 682 l 275 668 l 279 464 z "},"}":{"ha":571,"x_min":25,"x_max":549,"o":"m 549 221 q 518 -33 549 74 q 406 -203 485 -149 q 369 -224 382 -219 q 319 -232 351 -226 q 199 -258 260 -246 q 76 -274 128 -274 q 40 -272 58 -274 q 25 -190 25 -237 q 44 -65 25 -142 q 172 28 150 -36 q 179 64 174 31 q 200 336 196 174 q 206 608 203 472 q 210 663 207 621 q 213 715 213 697 q 204 743 213 719 q 128 843 182 814 q 90 854 110 853 q 49 860 76 854 q 46 893 46 876 q 59 995 46 928 q 72 1096 72 1063 l 83 1100 q 210 1089 172 1094 q 333 1058 282 1079 q 447 982 403 1032 q 467 960 464 965 q 479 922 471 954 q 528 597 517 794 l 542 343 q 549 221 549 214 z "},"~":{"ha":275,"x_min":14,"x_max":279,"o":"m 279 464 q 168 444 239 444 q 97 446 156 444 q 28 446 56 447 l 14 454 l 14 586 q 24 682 14 646 l 261 682 l 275 668 l 279 464 z "},"":{"ha":660,"x_min":0,"x_max":0,"o":""}}}
